<svg class="nav__logo__img" width="30" height="50" viewBox="0 0 244 271" fill="#314163" xmlns="http://www.w3.org/2000/svg">
<path d="M98.4931 201V175.93H127.164C132.032 175.93 135.653 174.694 138.027 172.222C140.402 169.751 141.589 166.161 141.589 161.453C141.589 156.745 140.402 153.214 138.027 150.86C135.653 148.388 132.032 147.152 127.164 147.152H98.4931V127.732H126.096C135.237 127.732 143.429 128.85 150.671 131.086C157.913 133.205 163.612 136.736 167.767 141.679C171.922 146.623 174 153.214 174 161.453V163.925C174 171.693 172.16 178.343 168.479 183.875C164.799 189.407 159.397 193.644 152.274 196.586C145.151 199.529 136.425 201 126.096 201H98.4931ZM70 201V70H102.055V201H70ZM98.4931 142.209V122.788H122.356C127.224 122.788 130.726 121.611 132.863 119.257C135.119 116.786 136.247 113.372 136.247 109.018C136.247 104.545 135.119 101.132 132.863 98.7776C130.726 96.3059 127.224 95.0701 122.356 95.0701H98.4931V70H120.931C136.128 70 147.881 73.1779 156.192 79.5337C164.502 85.7718 168.658 94.717 168.658 106.369V109.018C168.658 117.139 166.521 123.671 162.247 128.615C158.091 133.44 152.393 136.912 145.151 139.031C138.027 141.15 129.954 142.209 120.931 142.209H98.4931Z"/>
<path fill-rule="evenodd" clip-rule="evenodd" d="M204 167L204 231H140V271H204H244V231L244 167H204Z"/>
<path fill-rule="evenodd" clip-rule="evenodd" d="M40 110L40 40L110 40L110 0L40 1.3749e-05L-5.53929e-05 1.72459e-05L-3.8147e-05 110L40 110Z"/>
<rect x="70" y="231" width="40" height="40"/>
<rect x="204" y="97" width="40" height="40"/>
</svg>
